<?xml version="1.0" encoding="UTF-8"?>
<svg id="Capa_1" data-name="Capa 1" xmlns="http://www.w3.org/2000/svg" viewBox="0 0 423 191.41">
  <defs>
    <style>
      .cls-1 {
        fill: #3ba6df;
      }

      .cls-1, .cls-2 {
        stroke-width: 0px;
      }

      .cls-2 {
        fill: #2b3180;
      }
    </style>
  </defs>
  <path class="cls-2" d="m328.02,155.49c5.82,0,8.23,3.01,7.23,8.93l-3.11,17.66c-.1.6-.5.9-1.2.9h-1.4c-.8,0-1.2-.4-1-1.2l3.11-17.56c.4-2.11.2-3.61-.6-4.52-.8-.9-2.21-1.4-4.32-1.4h-7.33c-3.41,0-6.32.7-8.63,2.21l-3.01,1.91c0,.4-.1.8-.2,1.3l-3.21,18.16c-.1.6-.5,1-1.2,1h-2.31c-.8,0-1.1-.4-1-1.2l3.11-17.56c.4-2.11.2-3.61-.6-4.52-.8-.9-2.21-1.4-4.32-1.4h-7.33c-3.41,0-6.32.7-8.63,2.21l-3.01,1.91-3.41,19.57c-.1.6-.5,1-1.2,1h-1.4c-.7,0-1-.4-.9-1.2l4.42-25.39c.1-.6.5-.9,1.2-.9h1.61c.7,0,1,.3,1,1l-.2,3.01,1.4-.9c2.01-1.3,3.71-2.21,5.12-2.51,1.51-.4,3.51-.5,6.12-.5h7.33c4.11,0,6.52,1.4,7.23,4.32l1.91-1.3c2.01-1.3,3.71-2.11,5.22-2.51s3.51-.6,6.12-.6h7.43v.1Z"/>
  <path class="cls-2" d="m415.12,155.39c6.22,0,8.73,2.51,7.63,8.83l-3.11,17.26c-.1,1-.7,1.4-1.81,1.4h-4.11c-1.1,0-1.61-.6-1.4-1.71l2.91-15.96c.3-1.71.1-2.91-.5-3.71-.6-.7-1.81-1.1-3.51-1.1h-15.05c-2.91,0-5.22.6-7.12,1.81l-2.41,1.71c0,.1-.1.2-.1.3v.3l-3.01,17.06c-.1.9-.7,1.4-1.81,1.4h-3.71c-.6,0-1-.2-1.2-.5s-.3-.7-.2-1.3l2.81-15.96c.3-1.71.2-2.91-.5-3.71-.6-.7-1.81-1.1-3.51-1.1h-15.05c-2.81,0-5.22.6-7.12,1.81l-2.41,1.61-3.11,17.66c-.2.9-.7,1.4-1.71,1.4h-4.11c-1.1,0-1.61-.6-1.4-1.81l4.52-24.28c.2-1,.8-1.4,1.71-1.4h2.81c1,0,1.61.5,1.71,1.51l-.1,2.31.4-.3c2.11-1.51,3.91-2.41,5.32-2.91,1.51-.4,3.61-.6,6.32-.6h15.76c4.21,0,6.72,1.4,7.53,4.32l1.1-.7c2.11-1.51,3.91-2.41,5.32-2.91,1.51-.4,3.61-.6,6.32-.6h15.96v-.1Z"/>
  <g>
    <path class="cls-1" d="m8.2,182.99c-3.11,0-5.32-.8-6.72-2.51-1.4-1.61-1.81-4.01-1.2-7.23l3.21-18.46c.6-3.21,1.61-5.42,3.11-6.72,1.51-1.3,3.81-1.91,7.02-1.91h15.25c3.01,0,5.22.8,6.62,2.41,1.3,1.61,1.71,3.91,1.2,7.02l-.4,2.11c-.1.5-.3.7-.8.7h-1.61c-.6,0-.8-.3-.7-.9l.3-1.81c.4-2.41.1-4.21-.8-5.42-.9-1.1-2.61-1.71-5.02-1.71h-13.45c-2.41,0-4.21.5-5.32,1.4s-1.91,2.61-2.31,5.02l-3.11,17.66c-.4,2.41-.2,4.21.8,5.32.9,1.1,2.61,1.71,5.02,1.71h13.45c2.51,0,4.32-.5,5.42-1.4,1.1-.9,1.91-2.71,2.41-5.12l.5-3.11c0-.5.3-.7.9-.7h1.71c.6,0,.9.3.7.9l-.6,3.61c-.6,3.31-1.71,5.62-3.21,6.92-1.61,1.3-4.01,2.01-7.33,2.01h-15.05v.2Z"/>
    <path class="cls-1" d="m48.84,182.99c-5.82,0-8.23-2.91-7.23-8.73l1.91-11.24c.5-2.91,1.4-4.92,2.71-6.02s3.41-1.61,6.22-1.61h12.14c2.81,0,4.92.7,6.12,2.21s1.61,3.61,1.1,6.52l-1.91,11.24c-.5,2.91-1.4,4.92-2.71,6.02-1.3,1.1-3.41,1.61-6.22,1.61h-12.14Zm1.2-3.01h10.54c2.21,0,3.71-.4,4.52-1.1.9-.7,1.51-2.11,1.81-4.32l1.81-10.54c.4-2.21.2-3.71-.6-4.72-.8-1-2.31-1.4-4.52-1.4h-10.44c-2.21,0-3.71.4-4.52,1.1-.9.7-1.51,2.11-1.81,4.32l-1.81,10.54c-.4,2.21-.2,3.71.6,4.72.7.9,2.21,1.4,4.42,1.4Z"/>
    <path class="cls-1" d="m100.72,155.39c5.82,0,8.23,2.91,7.23,8.73l-3.21,18.06c0,.5-.3.7-.8.7h-1.71c-.6,0-.8-.3-.7-.8l3.11-17.56c.4-2.11.2-3.71-.6-4.62-.8-1-2.21-1.4-4.42-1.4h-3.81c-3.61,0-6.62.8-9.03,2.31l-3.11,1.91-3.41,19.57c-.1.5-.4.7-.9.7h-1.71c-.6,0-.8-.3-.7-.8l4.52-25.99c.1-.5.4-.7.9-.7h1c.4,0,.8.4.7.8l-.2,3.31,1.81-1.2c1.91-1.2,3.61-2.01,5.12-2.41s3.51-.5,6.12-.5h3.81v-.1Z"/>
    <path class="cls-1" d="m137.15,155.39c.2,0,.4.1.5.2.1.1.2.3.1.6l-.2,1.1c0,.4-.3.6-.7.6h-12.95l-3.01,17.36c-.3,1.61-.1,2.81.5,3.61.6.7,1.71,1.1,3.41,1.1h8.03s.8.5.7,1l-.2,1.1c-.1.5-.8.3-.8.3h-9.03c-4.72,0-6.62-2.31-5.82-7.02l3.01-17.46h-5.22c-.5,0-.7-.3-.7-.8l.2-1.1c.1-.4.4-.6.8-.6h5.52l1.61-5.52c.1-.4.4-.6.9-.6h.9c.5,0,.8.3.7.8l-.9,5.32h12.64Z"/>
    <path class="cls-1" d="m163.64,155.39c5.72,0,8.03,2.81,7.02,8.53l-3.21,18.26c-.1.5-.4.7-.9.7h-.5c-.6,0-.8-.3-.8-.8l.3-3.51-2.71,1.71c-1.81,1.2-3.41,1.91-4.72,2.21s-3.21.5-5.52.5h-6.62c-2.21,0-3.81-.6-4.82-1.91-1-1.2-1.3-3.01-1-5.12l.5-2.71c.4-2.31,1.2-3.91,2.31-4.82,1.1-.9,2.71-1.4,4.92-1.4h18.77l.6-3.41c.4-2.21.2-3.71-.5-4.52s-2.11-1.3-4.32-1.3h-9.83c-1.61,0-2.81.3-3.51.9-.7.6-1.2,1.71-1.51,3.31l-.2,1.2c0,.5-.3.7-.8.7h-1.51c-.6,0-.8-.3-.7-.8l.3-1.3c.4-2.41,1.2-4.01,2.41-5.02,1.1-1,2.91-1.4,5.22-1.4h11.34Zm-1.91,23.08l3.61-2.21.6-3.21.5-2.91h-17.56c-1.51,0-2.61.3-3.31.8-.7.6-1.1,1.61-1.4,3.11l-.3,2.01c-.2,1.61-.1,2.71.5,3.41s1.61,1,3.21,1h6.32c2.91.1,5.52-.6,7.83-2.01Z"/>
    <path class="cls-1" d="m207.7,155.39c.6,0,.8.3.7.8l-4.52,25.69c-.6,3.11-1.71,5.42-3.31,6.92-1.71,1.4-4.11,2.11-7.23,2.11h-17.36c-.2,0-.4-.1-.5-.2-.1-.1-.2-.3-.1-.6l.2-1c0-.5.3-.7.7-.7h16.76c2.41,0,4.11-.5,5.32-1.51s1.91-2.71,2.41-5.02l.9-4.82-1.71,1.1c-1.91,1.2-3.51,2.01-5.02,2.31-1.51.4-3.41.5-5.92.5h-4.52c-5.72,0-8.03-2.81-7.02-8.53l1.71-9.53c.5-2.91,1.4-4.92,2.71-6.02s3.41-1.71,6.32-1.71h4.82c2.71,0,4.72.2,6.22.5s2.91,1.1,4.32,2.31l1.51,1.3,1-3.51c.1-.4.4-.7.9-.7h.7v.3Zm-8.73,20.27l3.11-1.91.5-3.11,1.51-8.63-2.41-1.91c-1.81-1.51-4.72-2.21-8.63-2.21h-4.82c-2.11,0-3.61.3-4.42,1-.8.7-1.4,2.11-1.81,4.21l-1.51,8.83c-.4,2.21-.2,3.71.5,4.72.7.9,2.21,1.4,4.32,1.4h4.42c3.61,0,6.72-.8,9.23-2.41Z"/>
    <path class="cls-1" d="m234.79,155.39c.6,0,.9.3.7.9l-.2,1.4c-.1.5-.4.7-.9.7h-2.81c-3.61,0-6.72.8-9.13,2.31l-3.11,2.01-3.31,19.47c-.1.5-.4.7-.9.7h-1.61c-.6,0-.8-.3-.7-.8l4.52-25.99c.1-.5.4-.7.9-.7h.3c.6,0,.9.3.8.8l-.2,3.51,2.01-1.3c2.01-1.3,3.91-2.11,5.52-2.51s3.81-.6,6.52-.6h1.61v.1Z"/>
    <path class="cls-1" d="m260.28,155.39c5.72,0,8.03,2.81,7.02,8.53l-3.21,18.26c-.1.5-.4.7-.9.7h-.5c-.6,0-.8-.3-.8-.8l.3-3.51-2.71,1.71c-1.81,1.2-3.41,1.91-4.72,2.21s-3.21.5-5.52.5h-6.62c-2.21,0-3.81-.6-4.82-1.91-1-1.2-1.3-3.01-1-5.12l.5-2.71c.4-2.31,1.2-3.91,2.31-4.82,1.1-.9,2.71-1.4,4.92-1.4h18.77l.6-3.41c.4-2.21.2-3.71-.5-4.52s-2.11-1.3-4.32-1.3h-10.14c-1.61,0-2.81.3-3.51.9-.7.6-1.2,1.71-1.51,3.31l-.2,1.2c0,.5-.3.7-.8.7h-1.51c-.6,0-.8-.3-.7-.8l.3-1.3c.4-2.41,1.2-4.01,2.41-5.02,1.1-1,2.91-1.4,5.22-1.4h11.64Zm-1.91,23.08l3.61-2.21.6-3.21.5-2.91h-17.56c-1.51,0-2.61.3-3.31.8-.7.6-1.1,1.61-1.4,3.11l-.3,2.01c-.2,1.61-.1,2.71.5,3.41s1.61,1,3.21,1h6.32c2.91.1,5.42-.6,7.83-2.01Z"/>
  </g>
  <path class="cls-1" d="m202.28,6.67c3.91-6.42,8.23-7.02,14.05-1.91l16.06,14.05c.9.8,1.1,1.71.4,2.81l-1.51,2.31c-.7,1.2-1.71,1.3-2.81.4l-14.85-13.15c-1.61-1.4-3.01-2.01-4.11-1.81-1.2.2-2.01,1.4-3.11,3.21l-9.63,15.65c-1.81,2.91-2.91,5.52-2.81,8.13l.2,3.61c.1.1.1.2.2.2.1.1.2.1.3.2l16.26,14.15c.9.8,1.1,1.71.4,2.81l-1.4,2.31c-.4.6-.8.9-1.3,1s-1-.1-1.51-.6l-14.95-13.05c-1.61-1.4-2.91-2.01-4.11-1.91-1.2.2-2.31,1.1-3.41,2.91l-9.53,15.55c-1.81,2.91-2.61,5.82-2.51,8.53l.2,3.51,16.56,14.55c.8.8,1,1.61.4,2.51l-1.61,2.71c-.7,1.1-1.61,1.2-2.61.4l-23.18-20.47c-.9-.8-1-1.71-.4-2.71,0,0,.8-1.3,1.1-1.81.6-.9,1.61-1.4,2.61-.8l2.31,1.51v-.6c-.2-3.11-.1-5.52.4-7.33.7-2.61,3.31-6.82,3.31-6.82,0,0,6.72-11.04,8.93-14.65,1.3-2.21,5.32-6.12,8.73-5.22l-.1-1.61c-.2-3.11-.1-5.52.4-7.33s3.61-6.62,3.61-6.62l9.03-14.65Z"/>
  <path class="cls-2" d="m220.74,112.64c-3.91,6.42-8.23,7.02-14.05,1.91l-16.06-14.05c-.9-.8-1.1-1.71-.4-2.81l1.51-2.31c.7-1.2,1.71-1.3,2.81-.4l14.85,13.15c1.61,1.4,3.01,2.01,4.11,1.81,1.2-.2,2.01-1.4,3.11-3.21l9.43-15.55c1.81-2.91,2.91-5.52,2.81-8.13l-.2-3.61c-.1-.1-.1-.2-.2-.2-.1-.1-.2-.1-.3-.2l-16.26-14.15c-.9-.8-1.1-1.71-.4-2.81l1.4-2.31c.4-.6.8-.9,1.3-1s1,.1,1.51.6l14.95,13.05c1.61,1.4,2.91,2.01,4.11,1.91,1.2-.2,2.31-1.1,3.41-2.91l9.53-15.55c1.81-2.91,2.61-5.82,2.51-8.53l-.2-3.51-16.56-14.55c-.8-.8-1-1.61-.4-2.51l1.61-2.71c.7-1.1,1.61-1.2,2.61-.4l23.18,20.47c.9.8,1,1.71.4,2.71,0,0-.8,1.3-1.1,1.81-.6.9-1.61,1.4-2.61.8l-2.31-1.51v.6c.2,3.11.1,5.52-.4,7.33-.7,2.61-3.31,6.82-3.31,6.82,0,0-6.72,11.04-8.93,14.65-1.3,2.21-5.32,6.12-8.73,5.22l.1,1.61c.2,3.11.1,5.52-.4,7.33s-3.61,6.62-3.61,6.62l-8.83,14.55Z"/>
  <circle class="cls-2" cx="227.46" cy="123.08" r="3.41"/>
</svg>