<?xml version="1.0" encoding="utf-8"?>
<!-- Generator: Adobe Illustrator 27.8.1, SVG Export Plug-In . SVG Version: 6.00 Build 0)  -->
<svg version="1.1" id="Capa_1" xmlns="http://www.w3.org/2000/svg" xmlns:xlink="http://www.w3.org/1999/xlink" x="0px" y="0px"
	 viewBox="0 0 423 218.9" style="enable-background:new 0 0 423 218.9;" xml:space="preserve">
<style type="text/css">
	.st0{fill:#2B3180;}
	.st1{fill:#3BA6DF;}
</style>
<g>
	<g>
		<path class="st0" d="M327.8,155.1c5.8,0,8.2,3,7.2,8.9l-3.1,17.6c-0.1,0.6-0.5,0.9-1.2,0.9h-1.4c-0.8,0-1.2-0.4-1-1.2l3.1-17.5
			c0.4-2.1,0.2-3.6-0.6-4.5c-0.8-0.9-2.2-1.4-4.3-1.4h-7.3c-3.4,0-6.3,0.7-8.6,2.2l-3,1.9c0,0.4-0.1,0.8-0.2,1.3l-3.2,18.1
			c-0.1,0.6-0.5,1-1.2,1h-2.3c-0.8,0-1.1-0.4-1-1.2l3.1-17.5c0.4-2.1,0.2-3.6-0.6-4.5c-0.8-0.9-2.2-1.4-4.3-1.4h-7.3
			c-3.4,0-6.3,0.7-8.6,2.2l-3,1.9l-3.4,19.5c-0.1,0.6-0.5,1-1.2,1h-1.4c-0.7,0-1-0.4-0.9-1.2l4.4-25.3c0.1-0.6,0.5-0.9,1.2-0.9h1.6
			c0.7,0,1,0.3,1,1l-0.2,3l1.4-0.9c2-1.3,3.7-2.2,5.1-2.5c1.5-0.4,3.5-0.5,6.1-0.5h7.3c4.1,0,6.5,1.4,7.2,4.3l1.9-1.3
			c2-1.3,3.7-2.1,5.2-2.5c1.5-0.4,3.5-0.6,6.1-0.6H327.8z"/>
		<path class="st0" d="M414.6,155c6.2,0,8.7,2.5,7.6,8.8l-3.1,17.2c-0.1,1-0.7,1.4-1.8,1.4h-4.1c-1.1,0-1.6-0.6-1.4-1.7l2.9-15.9
			c0.3-1.7,0.1-2.9-0.5-3.7c-0.6-0.7-1.8-1.1-3.5-1.1h-15c-2.9,0-5.2,0.6-7.1,1.8l-2.4,1.7c0,0.1-0.1,0.2-0.1,0.3c0,0.1,0,0.2,0,0.3
			l-3,17c-0.1,0.9-0.7,1.4-1.8,1.4h-3.7c-0.6,0-1-0.2-1.2-0.5c-0.2-0.3-0.3-0.7-0.2-1.3l2.8-15.9c0.3-1.7,0.2-2.9-0.5-3.7
			c-0.6-0.7-1.8-1.1-3.5-1.1h-15c-2.8,0-5.2,0.6-7.1,1.8l-2.4,1.6l-3.1,17.6c-0.2,0.9-0.7,1.4-1.7,1.4h-4.1c-1.1,0-1.6-0.6-1.4-1.8
			l4.5-24.2c0.2-1,0.8-1.4,1.7-1.4h2.8c1,0,1.6,0.5,1.7,1.5l-0.1,2.3l0.4-0.3c2.1-1.5,3.9-2.4,5.3-2.9c1.5-0.4,3.6-0.6,6.3-0.6h15.7
			c4.2,0,6.7,1.4,7.5,4.3l1.1-0.7c2.1-1.5,3.9-2.4,5.3-2.9c1.5-0.4,3.6-0.6,6.3-0.6H414.6z"/>
		<g>
			<path class="st1" d="M9.1,182.5c-3.1,0-5.3-0.8-6.7-2.5c-1.4-1.6-1.8-4-1.2-7.2l3.2-18.4c0.6-3.2,1.6-5.4,3.1-6.7
				c1.5-1.3,3.8-1.9,7-1.9h15.2c3,0,5.2,0.8,6.6,2.4c1.3,1.6,1.7,3.9,1.2,7l-0.4,2.1c-0.1,0.5-0.3,0.7-0.8,0.7h-1.6
				c-0.6,0-0.8-0.3-0.7-0.9l0.3-1.8c0.4-2.4,0.1-4.2-0.8-5.4c-0.9-1.1-2.6-1.7-5-1.7H15.1c-2.4,0-4.2,0.5-5.3,1.4
				c-1.1,0.9-1.9,2.6-2.3,5l-3.1,17.6c-0.4,2.4-0.2,4.2,0.8,5.3c0.9,1.1,2.6,1.7,5,1.7h13.4c2.5,0,4.3-0.5,5.4-1.4
				c1.1-0.9,1.9-2.7,2.4-5.1l0.5-3.1c0-0.5,0.3-0.7,0.9-0.7h1.7c0.6,0,0.9,0.3,0.7,0.9l-0.6,3.6c-0.6,3.3-1.7,5.6-3.2,6.9
				c-1.6,1.3-4,2-7.3,2H9.1z"/>
			<path class="st1" d="M49.6,182.5c-5.8,0-8.2-2.9-7.2-8.7l1.9-11.2c0.5-2.9,1.4-4.9,2.7-6c1.3-1.1,3.4-1.6,6.2-1.6h12.1
				c2.8,0,4.9,0.7,6.1,2.2c1.2,1.5,1.6,3.6,1.1,6.5l-1.9,11.2c-0.5,2.9-1.4,4.9-2.7,6c-1.3,1.1-3.4,1.6-6.2,1.6H49.6z M50.8,179.5
				h10.5c2.2,0,3.7-0.4,4.5-1.1c0.9-0.7,1.5-2.1,1.8-4.3l1.8-10.5c0.4-2.2,0.2-3.7-0.6-4.7c-0.8-1-2.3-1.4-4.5-1.4H53.9
				c-2.2,0-3.7,0.4-4.5,1.1c-0.9,0.7-1.5,2.1-1.8,4.3l-1.8,10.5c-0.4,2.2-0.2,3.7,0.6,4.7C47.1,179,48.6,179.5,50.8,179.5z"/>
			<path class="st1" d="M101.3,155c5.8,0,8.2,2.9,7.2,8.7l-3.2,18c0,0.5-0.3,0.7-0.8,0.7h-1.7c-0.6,0-0.8-0.3-0.7-0.8l3.1-17.5
				c0.4-2.1,0.2-3.7-0.6-4.6c-0.8-1-2.2-1.4-4.4-1.4h-3.8c-3.6,0-6.6,0.8-9,2.3l-3.1,1.9l-3.4,19.5c-0.1,0.5-0.4,0.7-0.9,0.7h-1.7
				c-0.6,0-0.8-0.3-0.7-0.8l4.5-25.9c0.1-0.5,0.4-0.7,0.9-0.7h1c0.4,0,0.8,0.4,0.7,0.8l-0.2,3.3l1.8-1.2c1.9-1.2,3.6-2,5.1-2.4
				c1.5-0.4,3.5-0.5,6.1-0.5H101.3z"/>
			<path class="st1" d="M137.6,155c0.2,0,0.4,0.1,0.5,0.2c0.1,0.1,0.2,0.3,0.1,0.6l-0.2,1.1c0,0.4-0.3,0.6-0.7,0.6h-12.9l-3,17.3
				c-0.3,1.6-0.1,2.8,0.5,3.6c0.6,0.7,1.7,1.1,3.4,1.1h8c0,0,0.8,0.5,0.7,1l-0.2,1.1c-0.1,0.5-0.8,0.3-0.8,0.3H124
				c-4.7,0-6.6-2.3-5.8-7l3-17.4H116c-0.5,0-0.7-0.3-0.7-0.8l0.2-1.1c0.1-0.4,0.4-0.6,0.8-0.6h5.5l1.6-5.5c0.1-0.4,0.4-0.6,0.9-0.6
				h0.9c0.5,0,0.8,0.3,0.7,0.8l-0.9,5.3H137.6z"/>
			<path class="st1" d="M164,155c5.7,0,8,2.8,7,8.5l-3.2,18.2c-0.1,0.5-0.4,0.7-0.9,0.7h-0.5c-0.6,0-0.8-0.3-0.8-0.8l0.3-3.5
				l-2.7,1.7c-1.8,1.2-3.4,1.9-4.7,2.2c-1.3,0.3-3.2,0.5-5.5,0.5h-6.6c-2.2,0-3.8-0.6-4.8-1.9c-1-1.2-1.3-3-1-5.1l0.5-2.7
				c0.4-2.3,1.2-3.9,2.3-4.8c1.1-0.9,2.7-1.4,4.9-1.4h18.7l0.6-3.4c0.4-2.2,0.2-3.7-0.5-4.5c-0.7-0.8-2.1-1.3-4.3-1.3H153
				c-1.6,0-2.8,0.3-3.5,0.9c-0.7,0.6-1.2,1.7-1.5,3.3l-0.2,1.2c0,0.5-0.3,0.7-0.8,0.7h-1.5c-0.6,0-0.8-0.3-0.7-0.8l0.3-1.3
				c0.4-2.4,1.2-4,2.4-5c1.1-1,2.9-1.4,5.2-1.4H164z M162.1,178l3.6-2.2l0.6-3.2l0.5-2.9h-17.5c-1.5,0-2.6,0.3-3.3,0.8
				c-0.7,0.6-1.1,1.6-1.4,3.1l-0.3,2c-0.2,1.6-0.1,2.7,0.5,3.4c0.6,0.7,1.6,1,3.2,1h6.3C157.2,180.1,159.8,179.4,162.1,178z"/>
			<path class="st1" d="M207.9,155c0.6,0,0.8,0.3,0.7,0.8l-4.5,25.6c-0.6,3.1-1.7,5.4-3.3,6.9c-1.7,1.4-4.1,2.1-7.2,2.1h-17.3
				c-0.2,0-0.4-0.1-0.5-0.2c-0.1-0.1-0.2-0.3-0.1-0.6l0.2-1c0-0.5,0.3-0.7,0.7-0.7h16.7c2.4,0,4.1-0.5,5.3-1.5c1.2-1,1.9-2.7,2.4-5
				l0.9-4.8l-1.7,1.1c-1.9,1.2-3.5,2-5,2.3c-1.5,0.4-3.4,0.5-5.9,0.5h-4.5c-5.7,0-8-2.8-7-8.5l1.7-9.5c0.5-2.9,1.4-4.9,2.7-6
				c1.3-1.1,3.4-1.7,6.3-1.7h4.8c2.7,0,4.7,0.2,6.2,0.5c1.5,0.3,2.9,1.1,4.3,2.3l1.5,1.3l1-3.5c0.1-0.4,0.4-0.7,0.9-0.7H207.9z
				 M199.2,175.2l3.1-1.9l0.5-3.1l1.5-8.6l-2.4-1.9c-1.8-1.5-4.7-2.2-8.6-2.2h-4.8c-2.1,0-3.6,0.3-4.4,1c-0.8,0.7-1.4,2.1-1.8,4.2
				l-1.5,8.8c-0.4,2.2-0.2,3.7,0.5,4.7c0.7,0.9,2.2,1.4,4.3,1.4h4.4C193.6,177.6,196.7,176.8,199.2,175.2z"/>
			<path class="st1" d="M234.9,155c0.6,0,0.9,0.3,0.7,0.9l-0.2,1.4c-0.1,0.5-0.4,0.7-0.9,0.7h-2.8c-3.6,0-6.7,0.8-9.1,2.3l-3.1,2
				l-3.3,19.4c-0.1,0.5-0.4,0.7-0.9,0.7h-1.6c-0.6,0-0.8-0.3-0.7-0.8l4.5-25.9c0.1-0.5,0.4-0.7,0.9-0.7h0.3c0.6,0,0.9,0.3,0.8,0.8
				l-0.2,3.5l2-1.3c2-1.3,3.9-2.1,5.5-2.5c1.6-0.4,3.8-0.6,6.5-0.6H234.9z"/>
			<path class="st1" d="M260.3,155c5.7,0,8,2.8,7,8.5l-3.2,18.2c-0.1,0.5-0.4,0.7-0.9,0.7h-0.5c-0.6,0-0.8-0.3-0.8-0.8l0.3-3.5
				l-2.7,1.7c-1.8,1.2-3.4,1.9-4.7,2.2c-1.3,0.3-3.2,0.5-5.5,0.5h-6.6c-2.2,0-3.8-0.6-4.8-1.9c-1-1.2-1.3-3-1-5.1l0.5-2.7
				c0.4-2.3,1.2-3.9,2.3-4.8c1.1-0.9,2.7-1.4,4.9-1.4h18.7l0.6-3.4c0.4-2.2,0.2-3.7-0.5-4.5c-0.7-0.8-2.1-1.3-4.3-1.3h-10.1
				c-1.6,0-2.8,0.3-3.5,0.9c-0.7,0.6-1.2,1.7-1.5,3.3l-0.2,1.2c0,0.5-0.3,0.7-0.8,0.7h-1.5c-0.6,0-0.8-0.3-0.7-0.8l0.3-1.3
				c0.4-2.4,1.2-4,2.4-5c1.1-1,2.9-1.4,5.2-1.4H260.3z M258.4,178l3.6-2.2l0.6-3.2l0.5-2.9h-17.5c-1.5,0-2.6,0.3-3.3,0.8
				c-0.7,0.6-1.1,1.6-1.4,3.1l-0.3,2c-0.2,1.6-0.1,2.7,0.5,3.4c0.6,0.7,1.6,1,3.2,1h6.3C253.5,180.1,256,179.4,258.4,178z"/>
		</g>
		<path class="st1" d="M202.5,6.8c3.9-6.4,8.2-7,14-1.9l16,14c0.9,0.8,1.1,1.7,0.4,2.8l-1.5,2.3c-0.7,1.2-1.7,1.3-2.8,0.4
			l-14.8-13.1c-1.6-1.4-3-2-4.1-1.8c-1.2,0.2-2,1.4-3.1,3.2L197,28.3c-1.8,2.9-2.9,5.5-2.8,8.1l0.2,3.6c0.1,0.1,0.1,0.2,0.2,0.2
			c0.1,0.1,0.2,0.1,0.3,0.2l16.2,14.1c0.9,0.8,1.1,1.7,0.4,2.8l-1.4,2.3c-0.4,0.6-0.8,0.9-1.3,1c-0.5,0.1-1-0.1-1.5-0.6l-14.9-13
			c-1.6-1.4-2.9-2-4.1-1.9c-1.2,0.2-2.3,1.1-3.4,2.9l-9.5,15.5c-1.8,2.9-2.6,5.8-2.5,8.5l0.2,3.5L189.6,90c0.8,0.8,1,1.6,0.4,2.5
			l-1.6,2.7c-0.7,1.1-1.6,1.2-2.6,0.4l-23.1-20.4c-0.9-0.8-1-1.7-0.4-2.7c0,0,0.8-1.3,1.1-1.8c0.6-0.9,1.6-1.4,2.6-0.8l2.3,1.5
			l0-0.6c-0.2-3.1-0.1-5.5,0.4-7.3c0.7-2.6,3.3-6.8,3.3-6.8s6.7-11,8.9-14.6c1.3-2.2,5.3-6.1,8.7-5.2l-0.1-1.6
			c-0.2-3.1-0.1-5.5,0.4-7.3c0.5-1.8,3.6-6.6,3.6-6.6L202.5,6.8z"/>
		<path class="st0" d="M220.9,112.4c-3.9,6.4-8.2,7-14,1.9l-16-14c-0.9-0.8-1.1-1.7-0.4-2.8l1.5-2.3c0.7-1.2,1.7-1.3,2.8-0.4
			l14.8,13.1c1.6,1.4,3,2,4.1,1.8c1.2-0.2,2-1.4,3.1-3.2l9.4-15.5c1.8-2.9,2.9-5.5,2.8-8.1l-0.2-3.6c-0.1-0.1-0.1-0.2-0.2-0.2
			c-0.1-0.1-0.2-0.1-0.3-0.2l-16.2-14.1c-0.9-0.8-1.1-1.7-0.4-2.8l1.4-2.3c0.4-0.6,0.8-0.9,1.3-1c0.5-0.1,1,0.1,1.5,0.6l14.9,13
			c1.6,1.4,2.9,2,4.1,1.9c1.2-0.2,2.3-1.1,3.4-2.9l9.5-15.5c1.8-2.9,2.6-5.8,2.5-8.5l-0.2-3.5l-16.5-14.5c-0.8-0.8-1-1.6-0.4-2.5
			l1.6-2.7c0.7-1.1,1.6-1.2,2.6-0.4l23.1,20.4c0.9,0.8,1,1.7,0.4,2.7c0,0-0.8,1.3-1.1,1.8c-0.6,0.9-1.6,1.4-2.6,0.8l-2.3-1.5l0,0.6
			c0.2,3.1,0.1,5.5-0.4,7.3c-0.7,2.6-3.3,6.8-3.3,6.8s-6.7,11-8.9,14.6c-1.3,2.2-5.3,6.1-8.7,5.2l0.1,1.6c0.2,3.1,0.1,5.5-0.4,7.3
			c-0.5,1.8-3.6,6.6-3.6,6.6L220.9,112.4z"/>
		<circle class="st0" cx="227.6" cy="122.8" r="3.4"/>
	</g>
	<g>
		<path class="st1" d="M318.1,211.6c-0.1,2.4-0.8,4.2-2,5.4s-2.9,1.9-5.1,1.9c-2.2,0-4-0.8-5.3-2.5c-1.3-1.7-1.9-3.9-1.9-6.8v-4
			c0-2.9,0.7-5.1,2-6.8s3.2-2.5,5.5-2.5c2.1,0,3.8,0.6,4.9,1.9s1.8,3.1,1.9,5.4h-2.8c-0.1-1.8-0.5-3.1-1.1-3.8
			c-0.6-0.8-1.6-1.1-2.9-1.1c-1.5,0-2.7,0.6-3.5,1.8c-0.8,1.2-1.2,2.9-1.2,5.2v4c0,2.2,0.4,3.9,1.1,5.1c0.7,1.2,1.8,1.8,3.3,1.8
			c1.4,0,2.5-0.4,3.1-1.1c0.6-0.7,1-2,1.2-3.8H318.1z"/>
		<path class="st1" d="M320.9,209.7c0-2.4,0.6-4.3,1.7-5.6c1.2-1.4,2.7-2.1,4.6-2.1s3.4,0.7,4.6,2s1.7,3.2,1.8,5.5v1.7
			c0,2.4-0.6,4.2-1.7,5.6c-1.1,1.4-2.7,2.1-4.6,2.1c-1.9,0-3.4-0.7-4.6-2c-1.1-1.3-1.7-3.1-1.8-5.4V209.7z M323.5,211.2
			c0,1.7,0.3,3,1,4c0.7,1,1.5,1.4,2.7,1.4c2.4,0,3.6-1.7,3.6-5.1v-1.8c0-1.7-0.3-3-1-4c-0.7-1-1.6-1.5-2.7-1.5c-1.1,0-2,0.5-2.6,1.5
			c-0.7,1-1,2.3-1,3.9V211.2z"/>
		<path class="st1" d="M339.5,202.3l0.1,1.8c1-1.4,2.4-2.1,4-2.1c2.9,0,4.4,1.9,4.4,5.8v10.9h-2.7v-10.7c0-1.3-0.2-2.2-0.6-2.7
			s-1.1-0.8-1.9-0.8c-0.7,0-1.3,0.2-1.8,0.7c-0.5,0.4-1,1-1.3,1.7v11.9H337v-16.3H339.5z"/>
		<path class="st1" d="M355.4,198.3v4h2.5v2.2h-2.5v10.1c0,0.6,0.1,1.1,0.3,1.5c0.2,0.3,0.6,0.5,1.1,0.5c0.4,0,0.7-0.1,1.1-0.2
			l0,2.3c-0.6,0.2-1.2,0.3-1.9,0.3c-1.1,0-1.9-0.4-2.4-1.1c-0.6-0.8-0.8-1.8-0.8-3.2v-10.1h-2.5v-2.2h2.5v-4H355.4z"/>
		<path class="st1" d="M367.8,204.8c-0.4-0.1-0.8-0.1-1.2-0.1c-1.4,0-2.3,0.8-2.9,2.2v11.7H361v-16.3h2.6l0,1.7c0.7-1.3,1.7-2,3-2
			c0.4,0,0.8,0.1,1.1,0.2L367.8,204.8z"/>
		<path class="st1" d="M378.2,218.6c-0.2-0.4-0.3-0.9-0.3-1.8c-0.9,1.4-2.2,2.1-3.6,2.1c-1.5,0-2.6-0.4-3.5-1.2s-1.2-2-1.2-3.5
			c0-1.7,0.6-3,1.7-4c1.1-1,2.7-1.5,4.6-1.5h2V207c0-1-0.2-1.7-0.6-2.1c-0.4-0.4-1.1-0.6-2-0.6c-0.8,0-1.5,0.2-2,0.7
			c-0.5,0.5-0.8,1.1-0.8,1.8h-2.7c0-0.8,0.2-1.6,0.7-2.4s1.2-1.4,2-1.8s1.8-0.6,2.8-0.6c1.7,0,2.9,0.4,3.8,1.2s1.3,2,1.3,3.6v8.2
			c0,1.3,0.2,2.3,0.5,3.3v0.2H378.2z M374.7,216.5c0.7,0,1.3-0.2,1.9-0.5c0.6-0.4,1-0.8,1.3-1.4v-3.9h-1.5c-1.3,0-2.3,0.3-3,0.9
			c-0.7,0.5-1.1,1.3-1.1,2.3c0,0.9,0.2,1.6,0.6,2C373.2,216.3,373.8,216.5,374.7,216.5z"/>
		<path class="st1" d="M388.1,198.3v4h2.5v2.2h-2.5v10.1c0,0.6,0.1,1.1,0.3,1.5c0.2,0.3,0.6,0.5,1.1,0.5c0.4,0,0.7-0.1,1.1-0.2
			l0,2.3c-0.6,0.2-1.2,0.3-1.9,0.3c-1.1,0-1.9-0.4-2.4-1.1c-0.6-0.8-0.8-1.8-0.8-3.2v-10.1H383v-2.2h2.5v-4H388.1z"/>
		<path class="st1" d="M392.9,209.7c0-2.4,0.6-4.3,1.7-5.6c1.2-1.4,2.7-2.1,4.6-2.1s3.4,0.7,4.6,2s1.7,3.2,1.8,5.5v1.7
			c0,2.4-0.6,4.2-1.7,5.6c-1.1,1.4-2.7,2.1-4.6,2.1c-1.9,0-3.4-0.7-4.6-2c-1.1-1.3-1.7-3.1-1.8-5.4V209.7z M395.6,211.2
			c0,1.7,0.3,3,1,4c0.7,1,1.5,1.4,2.7,1.4c2.4,0,3.6-1.7,3.6-5.1v-1.8c0-1.7-0.3-3-1-4c-0.7-1-1.6-1.5-2.7-1.5c-1.1,0-2,0.5-2.6,1.5
			c-0.7,1-1,2.3-1,3.9V211.2z"/>
		<path class="st1" d="M416.9,214.4c0-0.6-0.2-1.1-0.6-1.5c-0.4-0.4-1.3-0.9-2.5-1.4c-1.4-0.6-2.5-1.1-3-1.5s-1-0.9-1.3-1.4
			c-0.3-0.5-0.4-1.2-0.4-1.9c0-1.3,0.5-2.4,1.5-3.3c1-0.9,2.2-1.3,3.7-1.3c1.6,0,2.9,0.5,3.8,1.4s1.4,2.1,1.4,3.6h-2.7
			c0-0.7-0.2-1.4-0.7-1.9s-1.1-0.8-1.9-0.8c-0.8,0-1.4,0.2-1.8,0.6c-0.4,0.4-0.7,1-0.7,1.6c0,0.5,0.2,1,0.5,1.3s1.1,0.8,2.4,1.3
			c2,0.8,3.3,1.5,4,2.3c0.7,0.7,1.1,1.7,1.1,2.8c0,1.4-0.5,2.6-1.5,3.4c-1,0.9-2.3,1.3-3.9,1.3c-1.7,0-3.1-0.5-4.1-1.5
			s-1.6-2.2-1.6-3.7h2.7c0,0.9,0.3,1.6,0.8,2.1c0.5,0.5,1.3,0.8,2.2,0.8c0.9,0,1.6-0.2,2-0.6S416.9,215.1,416.9,214.4z"/>
	</g>
</g>
</svg>
